<svg id="Layer_1" data-name="Layer 1" xmlns="http://www.w3.org/2000/svg" viewBox="0 0 288 34"><defs><style>.cls-1{fill:#14264a}</style></defs><path class="cls-1" d="M117.56 17.14l4.27-7.42.3-.36a.84.84 0 0 1 .66-.25h1.53a.61.61 0 0 1 .61.61v14.53a.61.61 0 0 1-.61.61h-1.82a.61.61 0 0 1-.61-.61v-8.79L119 20.52a2 2 0 0 1-.32.37.72.72 0 0 1-.52.19H117a.72.72 0 0 1-.52-.19 2 2 0 0 1-.32-.37l-2.92-5.06v8.79a.61.61 0 0 1-.61.61h-1.82a.61.61 0 0 1-.61-.61V9.73a.61.61 0 0 1 .61-.61h1.53a.83.83 0 0 1 .66.25l.3.36zM139.8 22a.61.61 0 0 1 .61.61v1.6a.61.61 0 0 1-.61.61h-9.87a.61.61 0 0 1-.61-.61V9.73a.61.61 0 0 1 .61-.61h9.69a.61.61 0 0 1 .61.61v1.6a.61.61 0 0 1-.61.61h-7.26v3.56h6.77a.61.61 0 0 1 .61.61v1.6a.61.61 0 0 1-.61.61h-6.77V22zm14.96 2.86a.79.79 0 0 1-.59-.2 4 4 0 0 1-.29-.32L147.59 15v9.26a.61.61 0 0 1-.61.61h-1.82a.61.61 0 0 1-.61-.61V9.73a.61.61 0 0 1 .61-.61h1.57a.79.79 0 0 1 .59.2c.14.14.23.24.29.32l6.3 9.36V9.73a.62.62 0 0 1 .61-.61h1.82a.61.61 0 0 1 .61.61v14.52a.61.61 0 0 1-.61.61zm17.3-15.74a.61.61 0 0 1 .61.61v1.6a.61.61 0 0 1-.61.61h-4v12.31a.61.61 0 0 1-.61.61h-1.82a.61.61 0 0 1-.61-.61V11.93h-4a.61.61 0 0 1-.61-.61v-1.6a.61.61 0 0 1 .61-.61zM185 15.1a3.54 3.54 0 0 0-1-2.51 4 4 0 0 0-5.06 0 3.53 3.53 0 0 0-1 2.51v3.8a3.5 3.5 0 0 0 1 2.5 4.09 4.09 0 0 0 5.06 0 3.5 3.5 0 0 0 1-2.5v-3.8m-10.19-.1a8 8 0 0 1 .48-2.37 5.44 5.44 0 0 1 1.23-1.93 5.82 5.82 0 0 1 2-1.3 8.83 8.83 0 0 1 5.73 0 5.6 5.6 0 0 1 2 1.3 5.68 5.68 0 0 1 1.24 1.93A7.64 7.64 0 0 1 188 15v4.02a8 8 0 0 1-.48 2.37 5.41 5.41 0 0 1-1.22 1.93 5.69 5.69 0 0 1-2 1.29 9 9 0 0 1-5.74 0 5.68 5.68 0 0 1-2-1.29 5.42 5.42 0 0 1-1.23-1.93 8 8 0 0 1-.48-2.37V15m20.05 1.2h3.26a4 4 0 0 0 2-.45A1.81 1.81 0 0 0 201 14a1.76 1.76 0 0 0-.76-1.69 4.2 4.2 0 0 0-2-.43h-3.34zm3.37-7.08a6.22 6.22 0 0 1 4.27 1.3A4.61 4.61 0 0 1 204 14a5 5 0 0 1-.75 2.8 4.45 4.45 0 0 1-2.25 1.76l3.1 5.55a.58.58 0 0 1 .07.25.48.48 0 0 1-.15.35.47.47 0 0 1-.35.15h-1.87a.9.9 0 0 1-.66-.21 1.62 1.62 0 0 1-.3-.39L197.89 19h-3v5.24a.61.61 0 0 1-.61.61h-1.82a.61.61 0 0 1-.61-.61V9.72a.61.61 0 0 1 .61-.61zm17.98 8.02l4.27-7.42.3-.36a.83.83 0 0 1 .66-.25H223a.61.61 0 0 1 .61.61v14.53a.61.61 0 0 1-.61.61h-1.8a.61.61 0 0 1-.61-.61v-8.79l-2.92 5.06a2 2 0 0 1-.32.37.72.72 0 0 1-.52.19h-1.17a.72.72 0 0 1-.52-.19 2 2 0 0 1-.32-.37l-2.92-5.06v8.79a.61.61 0 0 1-.61.61h-1.82a.61.61 0 0 1-.61-.61V9.73a.61.61 0 0 1 .61-.61H211a.83.83 0 0 1 .66.25l.3.36zM236.91 19l-2.47-6.41L232 19zm-1.24-9.87a.71.71 0 0 1 .54.19 1.63 1.63 0 0 1 .32.57l5.47 14.2a.51.51 0 0 1 0 .16.61.61 0 0 1-.61.61h-1.62a.84.84 0 0 1-.63-.19 1.13 1.13 0 0 1-.25-.37l-1-2.5h-7.1l-1 2.5a1.15 1.15 0 0 1-.25.37.84.84 0 0 1-.63.19h-1.62a.61.61 0 0 1-.61-.61.48.48 0 0 1 0-.16l5.51-14.21a1.65 1.65 0 0 1 .32-.57.71.71 0 0 1 .54-.19zm18.92-.01a.61.61 0 0 1 .61.61v1.6a.61.61 0 0 1-.61.61h-4v12.31a.62.62 0 0 1-.61.61h-1.82a.62.62 0 0 1-.61-.61V11.93h-4a.61.61 0 0 1-.61-.61v-1.6a.61.61 0 0 1 .61-.61zM269.27 22a.61.61 0 0 1 .61.61v1.6a.61.61 0 0 1-.61.61h-9.87a.61.61 0 0 1-.61-.61V9.73a.61.61 0 0 1 .61-.61h9.69a.62.62 0 0 1 .61.61v1.6a.62.62 0 0 1-.61.61h-7.26v3.56h6.77a.61.61 0 0 1 .61.61v1.6a.61.61 0 0 1-.61.61h-6.77V22zm4.86-10.44a.08.08 0 0 1 0-.06V9.56h-.71a.09.09 0 0 1 0-.06v-.29a.1.1 0 0 1 0-.06.08.08 0 0 1 .06 0h1.8a.08.08 0 0 1 .06 0 .09.09 0 0 1 0 .06v.26a.09.09 0 0 1 0 .06.08.08 0 0 1-.06 0h-.65v1.97a.08.08 0 0 1 0 .06.08.08 0 0 1-.06 0h-.39m1.63 0a.08.08 0 0 1 0-.06V9.21a.09.09 0 0 1 0-.06.08.08 0 0 1 .06 0h.29a.12.12 0 0 1 .11.07l.68 1.26.68-1.26a.12.12 0 0 1 .1-.07h.27a.08.08 0 0 1 .06 0 .09.09 0 0 1 0 .06v2.29a.08.08 0 0 1 0 .06h-.36a.08.08 0 0 1-.06 0 .08.08 0 0 1 0-.06V10l-.49.93a.12.12 0 0 1-.15.07h-.15a.14.14 0 0 1-.12-.08l-.49-.93v1.51a.08.08 0 0 1 0 .06.08.08 0 0 1-.06 0h-.3a.08.08 0 0 1-.06 0"/><path d="M32.61 6.54c-.21-.66-1-2.79-1.34-3.52a8 8 0 0 0-1.16-1.82 4.18 4.18 0 0 0-.9-.79c-.3-.18-.51-.27-.51-.27h18.01a2.51 2.51 0 0 1 .88.35 3.49 3.49 0 0 1 .85.71A8 8 0 0 1 49.61 3c.35.73 1.08 2.77 1.08 2.77L58 27.46c.21.66 1 2.79 1.34 3.52a7.94 7.94 0 0 0 1.16 1.82 4.14 4.14 0 0 0 .9.79c.31.17.52.27.52.27H43.87a2.49 2.49 0 0 1-.88-.35 3.49 3.49 0 0 1-.85-.71A8 8 0 0 1 41 31c-.35-.73-1.08-2.77-1.08-2.77zM90.35 3a7.94 7.94 0 0 0-1.16-1.8 3.5 3.5 0 0 0-.85-.71 2.53 2.53 0 0 0-.88-.35h-18s.21.09.52.27a4.14 4.14 0 0 1 .9.79A7.94 7.94 0 0 1 72 3c.35.73 1.12 2.86 1.34 3.52l9.2 27.32h18.36L91.43 5.79s-.73-2-1.08-2.77" fill="#03a8f5"/><path class="cls-1" d="M70.27 6.54s-1-2.79-1.34-3.52a9.3 9.3 0 0 0-.8-1.37l-.05-.07q-.15-.2-.31-.38a3.62 3.62 0 0 0-5.38 0l-.1.12a3.58 3.58 0 0 0-.28.35A9.26 9.26 0 0 0 61.22 3c-.35.73-1.08 2.77-1.08 2.77l-3.09 9.44 4 12.23c.21.66 1 2.79 1.34 3.52a9.3 9.3 0 0 0 .8 1.37l.05.07c.1.14.2.26.31.38a3.62 3.62 0 0 0 5.38 0l.1-.12a3.74 3.74 0 0 0 .28-.35 9.41 9.41 0 0 0 .81-1.31c.35-.73 1.08-2.77 1.08-2.77l3.09-9.46zM28.26 33.86H9.9l9.5-28.07s.73-2 1.08-2.77a9.28 9.28 0 0 1 .79-1.35 3.38 3.38 0 0 1 .28-.35l.1-.12a3.62 3.62 0 0 1 5.35 0c.1.12.21.24.31.38l.05.07A9.18 9.18 0 0 1 28.19 3c.35.73 1.34 3.52 1.34 3.52l4 12.21z"/></svg>